<svg version="1.1" viewBox="0.0 0.0 490.5511811023622 476.56430446194224" fill="none" stroke="none" stroke-linecap="square" stroke-miterlimit="10" xmlns:xlink="http://www.w3.org/1999/xlink" xmlns="http://www.w3.org/2000/svg"><clipPath id="p.0"><path d="m0 0l490.55118 0l0 476.5643l-490.55118 0l0 -476.5643z" clip-rule="nonzero"/></clipPath><g clip-path="url(#p.0)"><path fill="#000000" fill-opacity="0.0" d="m0 0l490.55118 0l0 476.5643l-490.55118 0z" fill-rule="evenodd"/><path fill="#ffffff" d="m180.4357 238.91602l0 0c0 -35.56366 29.880585 -64.39371 66.74016 -64.39371l0 0c17.700577 0 34.676193 6.784317 47.19243 18.860474c12.516205 12.076172 19.54773 28.454956 19.54773 45.533234l0 0c0 35.56366 -29.880585 64.39371 -66.74016 64.39371l0 0c-36.859573 0 -66.74016 -28.830048 -66.74016 -64.39371zm32.196854 0c0 17.78183 15.465561 32.19684 34.543304 32.19684c19.077744 0 34.54329 -14.415009 34.54329 -32.19684l0 0c0 -17.78183 -15.465546 -32.196854 -34.54329 -32.196854l0 0c-19.077744 0 -34.543304 14.415024 -34.543304 32.196854z" fill-rule="evenodd"/><path fill="#ffffff" d="m362.87665 238.91602l0 0c0 -29.38852 24.465698 -53.2126 54.64566 -53.2126l0 0c14.49292 0 28.392273 5.606308 38.64032 15.585602c10.248047 9.979309 16.00534 23.51413 16.00534 37.627l0 0c0 29.388489 -24.465698 53.212585 -54.64566 53.212585l0 0c-30.179962 0 -54.64566 -23.824097 -54.64566 -53.212585zm26.606293 0c0 14.694244 12.55365 26.606293 28.039368 26.606293c15.485718 0 28.039368 -11.912048 28.039368 -26.606293c0 -14.69426 -12.55365 -26.606308 -28.039368 -26.606308l0 0c-15.485718 0 -28.039368 11.912048 -28.039368 26.606308z" fill-rule="evenodd"/><path fill="#ffffff" d="m329.12335 224.35432l44.094482 0l0 35.11812l-44.094482 0z" fill-rule="evenodd"/><path fill="#ffffff" d="m131.47507 238.91602l0 0c0 29.388489 -24.465698 53.212585 -54.645668 53.212585l0 0c-14.492935 0 -28.392277 -5.6062927 -38.640327 -15.585602c-10.248049 -9.979309 -16.005344 -23.51413 -16.005344 -37.626984l0 0c0 -29.38852 24.465698 -53.2126 54.64567 -53.2126l0 0c30.17997 0 54.645668 23.824081 54.645668 53.2126zm-26.6063 0c0 -14.69426 -12.553658 -26.606308 -28.039368 -26.606308c-15.485718 0 -28.039371 11.912048 -28.039371 26.606308c0 14.694244 12.553654 26.606293 28.039371 26.606293l0 0c15.48571 0 28.039368 -11.912048 28.039368 -26.606293z" fill-rule="evenodd"/><path fill="#ffffff" d="m165.22835 253.47769l-44.09449 0l0 -35.11812l44.09449 0z" fill-rule="evenodd"/><path fill="#ffffff" d="m247.17586 127.02362l0 0c-29.388504 0 -53.2126 -24.465698 -53.2126 -54.645668l0 0c0 -14.492931 5.606308 -28.392273 15.585602 -38.640324c9.979309 -10.248051 23.51413 -16.005346 37.627 -16.005346l0 0c29.388504 0 53.2126 24.4657 53.2126 54.645668l0 0c0 30.17997 -23.824097 54.645668 -53.2126 54.645668zm0 -26.6063c14.69426 0 26.606308 -12.55365 26.606308 -28.039368c0 -15.485718 -11.912048 -28.039371 -26.606308 -28.039371c-14.69426 0 -26.606308 12.553654 -26.606308 28.039371l0 0c0 15.485718 11.912048 28.039368 26.606308 28.039368z" fill-rule="evenodd"/><path fill="#ffffff" d="m232.61417 160.7769l0 -44.09449l35.118103 0l0 44.09449z" fill-rule="evenodd"/><path fill="#ffffff" d="m247.17586 350.8084l0 0c-29.388504 0 -53.2126 24.465698 -53.2126 54.64566l0 0c0 14.49292 5.606308 28.392273 15.585602 38.64032c9.979309 10.248047 23.51413 16.00534 37.627 16.00534l0 0c29.388504 0 53.2126 -24.465698 53.2126 -54.64566l0 0c0 -30.179962 -23.824097 -54.64566 -53.2126 -54.64566zm0 26.606293c14.69426 0 26.606308 12.55365 26.606308 28.039368c0 15.485718 -11.912048 28.039368 -26.606308 28.039368c-14.69426 0 -26.606308 -12.55365 -26.606308 -28.039368l0 0c0 -15.485718 11.912048 -28.039368 26.606308 -28.039368z" fill-rule="evenodd"/><path fill="#ffffff" d="m232.61417 317.0551l0 44.094482l35.118103 0l0 -44.094482z" fill-rule="evenodd"/><path fill="#ffffff" d="m378.758 364.12363l0 0c20.78061 -20.78061 54.9263 -20.326935 76.26657 1.0133057l0 0c10.247955 10.247955 16.111938 24.040405 16.301971 38.34317c0.19003296 14.302765 -5.3094482 27.944214 -15.288666 37.92343l0 0c-20.78061 20.78061 -54.9263 20.326935 -76.26657 -1.0133362l0 0c-21.34024 -21.340271 -21.793945 -55.485962 -1.0133057 -76.26657zm18.813293 18.813293c-10.390289 10.39032 -9.936615 27.690002 1.0133362 38.639954c10.949951 10.949951 28.249634 11.4036255 38.639954 1.0133362c10.390289 -10.39032 9.936615 -27.690002 -1.0133362 -38.639954l0 0c-10.949951 -10.949951 -28.249634 -11.4036255 -38.639954 -1.0133362z" fill-rule="evenodd"/><path fill="#ffffff" d="m326.55676 291.33084l69.84143 69.84143l-24.832031 24.832031l-69.84143 -69.84143z" fill-rule="evenodd"/><path fill="#ffffff" d="m114.905716 364.12363l0 0c-20.78061 -20.78061 -54.926323 -20.326935 -76.26658 1.0133057l0 0c-10.2479515 10.247955 -16.111952 24.040405 -16.301989 38.34317c-0.19003487 14.302765 5.3094616 27.944214 15.288664 37.92343l0 0c20.780613 20.78061 54.926327 20.326935 76.26659 -1.0133362l0 0c21.340256 -21.340271 21.79393 -55.485962 1.0133209 -76.26657zm-18.813309 18.813293c10.390305 10.39032 9.936623 27.690002 -1.0133286 38.639954c-10.949951 10.949951 -28.249641 11.4036255 -38.63995 1.0133362c-10.390308 -10.39032 -9.936626 -27.690002 1.0133247 -38.639954l0 0c10.949951 -10.949951 28.249641 -11.4036255 38.639954 -1.0133362z" fill-rule="evenodd"/><path fill="#ffffff" d="m167.10695 291.33084l-69.84144 69.84143l24.832016 24.832031l69.84144 -69.84143z" fill-rule="evenodd"/><path fill="#ffffff" d="m378.758 114.906525l0 0c20.78061 20.78061 54.9263 20.326935 76.26657 -1.0133209l0 0c10.247955 -10.247955 16.111938 -24.040405 16.301971 -38.343163c0.19003296 -14.302757 -5.3094482 -27.944218 -15.288666 -37.92342l0 0c-20.78061 -20.780615 -54.9263 -20.326935 -76.26657 1.0133209l0 0c-21.34024 21.34026 -21.793945 55.485973 -1.0133057 76.26659zm18.813293 -18.813316c-10.390289 -10.390305 -9.936615 -27.690002 1.0133362 -38.63995c10.949951 -10.949951 28.249634 -11.403633 38.639954 -1.0133247c10.390289 10.390305 9.936615 27.690002 -1.0133362 38.639954l0 0c-10.949951 10.949951 -28.249634 11.403633 -38.639954 1.0133209z" fill-rule="evenodd"/><path fill="#ffffff" d="m326.55676 187.6993l69.84143 -69.84144l-24.832031 -24.832016l-69.84143 69.84144z" fill-rule="evenodd"/><path fill="#ffffff" d="m114.905716 114.906525l0 0c20.78061 -20.78061 20.326935 -54.926323 -1.0133209 -76.26659l0 0c-10.247955 -10.2479515 -24.040398 -16.111952 -38.343155 -16.301987c-14.302761 -0.19003487 -27.944225 5.3094616 -37.923428 15.288666l0 0c-20.780613 20.780613 -20.326931 54.92632 1.0133247 76.26659l0 0c21.340256 21.340256 55.48597 21.79393 76.26658 1.0133209zm-18.813309 -18.813316c-10.390312 10.390312 -27.690002 9.93663 -38.639954 -1.0133209c-10.949951 -10.949951 -11.403633 -28.24965 -1.0133247 -38.639954c10.390308 -10.390308 27.689999 -9.936626 38.63995 1.0133247l0 0c10.949951 10.949947 11.403633 28.249645 1.0133286 38.63995z" fill-rule="evenodd"/><path fill="#ffffff" d="m187.69849 167.10776l-69.84144 -69.841446l-24.832016 24.832016l69.84144 69.841446z" fill-rule="evenodd"/></g></svg>